<svg id="visual" viewBox="0 0 900 600" width="900" height="600" xmlns="http://www.w3.org/2000/svg" xmlns:xlink="http://www.w3.org/1999/xlink" version="1.1"><rect x="0" y="0" width="900" height="600" fill="#ffffff"></rect><path d="M0 419L39 419L39 438L78 438L78 405L117 405L117 518L157 518L157 524L196 524L196 392L235 392L235 369L274 369L274 397L313 397L313 420L352 420L352 455L391 455L391 470L430 470L430 404L470 404L470 407L509 407L509 410L548 410L548 529L587 529L587 417L626 417L626 436L665 436L665 508L704 508L704 434L743 434L743 517L783 517L783 506L822 506L822 378L861 378L861 432L900 432L900 408L900 601L900 601L861 601L861 601L822 601L822 601L783 601L783 601L743 601L743 601L704 601L704 601L665 601L665 601L626 601L626 601L587 601L587 601L548 601L548 601L509 601L509 601L470 601L470 601L430 601L430 601L391 601L391 601L352 601L352 601L313 601L313 601L274 601L274 601L235 601L235 601L196 601L196 601L157 601L157 601L117 601L117 601L78 601L78 601L39 601L39 601L0 601Z" fill="#001886"></path><path d="M0 395L39 395L39 419L78 419L78 490L117 490L117 390L157 390L157 506L196 506L196 426L235 426L235 517L274 517L274 501L313 501L313 477L352 477L352 519L391 519L391 447L430 447L430 428L470 428L470 527L509 527L509 394L548 394L548 474L587 474L587 436L626 436L626 524L665 524L665 417L704 417L704 408L743 408L743 495L783 495L783 533L822 533L822 449L861 449L861 531L900 531L900 393L900 601L900 601L861 601L861 601L822 601L822 601L783 601L783 601L743 601L743 601L704 601L704 601L665 601L665 601L626 601L626 601L587 601L587 601L548 601L548 601L509 601L509 601L470 601L470 601L430 601L430 601L391 601L391 601L352 601L352 601L313 601L313 601L274 601L274 601L235 601L235 601L196 601L196 601L157 601L157 601L117 601L117 601L78 601L78 601L39 601L39 601L0 601Z" fill="#051f8f"></path><path d="M0 452L39 452L39 495L78 495L78 541L117 541L117 487L157 487L157 442L196 442L196 420L235 420L235 431L274 431L274 533L313 533L313 472L352 472L352 404L391 404L391 501L430 501L430 425L470 425L470 497L509 497L509 438L548 438L548 411L587 411L587 408L626 408L626 528L665 528L665 522L704 522L704 415L743 415L743 490L783 490L783 426L822 426L822 481L861 481L861 430L900 430L900 491L900 601L900 601L861 601L861 601L822 601L822 601L783 601L783 601L743 601L743 601L704 601L704 601L665 601L665 601L626 601L626 601L587 601L587 601L548 601L548 601L509 601L509 601L470 601L470 601L430 601L430 601L391 601L391 601L352 601L352 601L313 601L313 601L274 601L274 601L235 601L235 601L196 601L196 601L157 601L157 601L117 601L117 601L78 601L78 601L39 601L39 601L0 601Z" fill="#0a2698"></path><path d="M0 461L39 461L39 492L78 492L78 491L117 491L117 425L157 425L157 458L196 458L196 474L235 474L235 442L274 442L274 422L313 422L313 490L352 490L352 493L391 493L391 508L430 508L430 447L470 447L470 467L509 467L509 444L548 444L548 456L587 456L587 520L626 520L626 478L665 478L665 421L704 421L704 513L743 513L743 450L783 450L783 491L822 491L822 459L861 459L861 441L900 441L900 479L900 601L900 601L861 601L861 601L822 601L822 601L783 601L783 601L743 601L743 601L704 601L704 601L665 601L665 601L626 601L626 601L587 601L587 601L548 601L548 601L509 601L509 601L470 601L470 601L430 601L430 601L391 601L391 601L352 601L352 601L313 601L313 601L274 601L274 601L235 601L235 601L196 601L196 601L157 601L157 601L117 601L117 601L78 601L78 601L39 601L39 601L0 601Z" fill="#0f2ca0"></path><path d="M0 455L39 455L39 472L78 472L78 475L117 475L117 508L157 508L157 548L196 548L196 526L235 526L235 529L274 529L274 537L313 537L313 444L352 444L352 479L391 479L391 454L430 454L430 512L470 512L470 515L509 515L509 500L548 500L548 512L587 512L587 526L626 526L626 474L665 474L665 553L704 553L704 449L743 449L743 443L783 443L783 446L822 446L822 550L861 550L861 549L900 549L900 519L900 601L900 601L861 601L861 601L822 601L822 601L783 601L783 601L743 601L743 601L704 601L704 601L665 601L665 601L626 601L626 601L587 601L587 601L548 601L548 601L509 601L509 601L470 601L470 601L430 601L430 601L391 601L391 601L352 601L352 601L313 601L313 601L274 601L274 601L235 601L235 601L196 601L196 601L157 601L157 601L117 601L117 601L78 601L78 601L39 601L39 601L0 601Z" fill="#1333a9"></path><path d="M0 550L39 550L39 542L78 542L78 559L117 559L117 481L157 481L157 483L196 483L196 483L235 483L235 466L274 466L274 539L313 539L313 539L352 539L352 497L391 497L391 507L430 507L430 482L470 482L470 544L509 544L509 512L548 512L548 483L587 483L587 518L626 518L626 502L665 502L665 497L704 497L704 531L743 531L743 492L783 492L783 481L822 481L822 552L861 552L861 549L900 549L900 526L900 601L900 601L861 601L861 601L822 601L822 601L783 601L783 601L743 601L743 601L704 601L704 601L665 601L665 601L626 601L626 601L587 601L587 601L548 601L548 601L509 601L509 601L470 601L470 601L430 601L430 601L391 601L391 601L352 601L352 601L313 601L313 601L274 601L274 601L235 601L235 601L196 601L196 601L157 601L157 601L117 601L117 601L78 601L78 601L39 601L39 601L0 601Z" fill="#163ab2"></path><path d="M0 507L39 507L39 496L78 496L78 539L117 539L117 496L157 496L157 521L196 521L196 561L235 561L235 536L274 536L274 519L313 519L313 555L352 555L352 522L391 522L391 482L430 482L430 501L470 501L470 475L509 475L509 502L548 502L548 512L587 512L587 528L626 528L626 484L665 484L665 497L704 497L704 496L743 496L743 527L783 527L783 510L822 510L822 512L861 512L861 509L900 509L900 497L900 601L900 601L861 601L861 601L822 601L822 601L783 601L783 601L743 601L743 601L704 601L704 601L665 601L665 601L626 601L626 601L587 601L587 601L548 601L548 601L509 601L509 601L470 601L470 601L430 601L430 601L391 601L391 601L352 601L352 601L313 601L313 601L274 601L274 601L235 601L235 601L196 601L196 601L157 601L157 601L117 601L117 601L78 601L78 601L39 601L39 601L0 601Z" fill="#1a40bc"></path><path d="M0 554L39 554L39 534L78 534L78 570L117 570L117 521L157 521L157 519L196 519L196 512L235 512L235 527L274 527L274 539L313 539L313 515L352 515L352 500L391 500L391 533L430 533L430 552L470 552L470 572L509 572L509 561L548 561L548 543L587 543L587 518L626 518L626 551L665 551L665 563L704 563L704 558L743 558L743 503L783 503L783 532L822 532L822 542L861 542L861 561L900 561L900 534L900 601L900 601L861 601L861 601L822 601L822 601L783 601L783 601L743 601L743 601L704 601L704 601L665 601L665 601L626 601L626 601L587 601L587 601L548 601L548 601L509 601L509 601L470 601L470 601L430 601L430 601L391 601L391 601L352 601L352 601L313 601L313 601L274 601L274 601L235 601L235 601L196 601L196 601L157 601L157 601L117 601L117 601L78 601L78 601L39 601L39 601L0 601Z" fill="#1c47c5"></path><path d="M0 518L39 518L39 556L78 556L78 566L117 566L117 547L157 547L157 570L196 570L196 538L235 538L235 574L274 574L274 524L313 524L313 563L352 563L352 529L391 529L391 532L430 532L430 551L470 551L470 514L509 514L509 513L548 513L548 568L587 568L587 578L626 578L626 512L665 512L665 569L704 569L704 540L743 540L743 548L783 548L783 536L822 536L822 551L861 551L861 560L900 560L900 526L900 601L900 601L861 601L861 601L822 601L822 601L783 601L783 601L743 601L743 601L704 601L704 601L665 601L665 601L626 601L626 601L587 601L587 601L548 601L548 601L509 601L509 601L470 601L470 601L430 601L430 601L391 601L391 601L352 601L352 601L313 601L313 601L274 601L274 601L235 601L235 601L196 601L196 601L157 601L157 601L117 601L117 601L78 601L78 601L39 601L39 601L0 601Z" fill="#1f4ece"></path><path d="M0 551L39 551L39 563L78 563L78 542L117 542L117 573L157 573L157 577L196 577L196 554L235 554L235 547L274 547L274 556L313 556L313 563L352 563L352 529L391 529L391 531L430 531L430 553L470 553L470 537L509 537L509 560L548 560L548 546L587 546L587 571L626 571L626 582L665 582L665 546L704 546L704 584L743 584L743 544L783 544L783 538L822 538L822 557L861 557L861 533L900 533L900 531L900 601L900 601L861 601L861 601L822 601L822 601L783 601L783 601L743 601L743 601L704 601L704 601L665 601L665 601L626 601L626 601L587 601L587 601L548 601L548 601L509 601L509 601L470 601L470 601L430 601L430 601L391 601L391 601L352 601L352 601L313 601L313 601L274 601L274 601L235 601L235 601L196 601L196 601L157 601L157 601L117 601L117 601L78 601L78 601L39 601L39 601L0 601Z" fill="#2155d8"></path><path d="M0 569L39 569L39 560L78 560L78 568L117 568L117 558L157 558L157 556L196 556L196 556L235 556L235 576L274 576L274 565L313 565L313 581L352 581L352 561L391 561L391 566L430 566L430 546L470 546L470 572L509 572L509 585L548 585L548 563L587 563L587 575L626 575L626 575L665 575L665 563L704 563L704 590L743 590L743 551L783 551L783 555L822 555L822 553L861 553L861 583L900 583L900 583L900 601L900 601L861 601L861 601L822 601L822 601L783 601L783 601L743 601L743 601L704 601L704 601L665 601L665 601L626 601L626 601L587 601L587 601L548 601L548 601L509 601L509 601L470 601L470 601L430 601L430 601L391 601L391 601L352 601L352 601L313 601L313 601L274 601L274 601L235 601L235 601L196 601L196 601L157 601L157 601L117 601L117 601L78 601L78 601L39 601L39 601L0 601Z" fill="#235ce1"></path><path d="M0 589L39 589L39 579L78 579L78 594L117 594L117 576L157 576L157 591L196 591L196 570L235 570L235 572L274 572L274 584L313 584L313 595L352 595L352 574L391 574L391 588L430 588L430 588L470 588L470 594L509 594L509 585L548 585L548 583L587 583L587 579L626 579L626 566L665 566L665 583L704 583L704 565L743 565L743 597L783 597L783 578L822 578L822 588L861 588L861 586L900 586L900 572L900 601L900 601L861 601L861 601L822 601L822 601L783 601L783 601L743 601L743 601L704 601L704 601L665 601L665 601L626 601L626 601L587 601L587 601L548 601L548 601L509 601L509 601L470 601L470 601L430 601L430 601L391 601L391 601L352 601L352 601L313 601L313 601L274 601L274 601L235 601L235 601L196 601L196 601L157 601L157 601L117 601L117 601L78 601L78 601L39 601L39 601L0 601Z" fill="#2563eb"></path></svg>